<?xml version="1.0" standalone="no"?>
<!DOCTYPE svg PUBLIC "-//W3C//DTD SVG 20010904//EN"
 "http://www.w3.org/TR/2001/REC-SVG-20010904/DTD/svg10.dtd">
<svg version="1.0" xmlns="http://www.w3.org/2000/svg"
 width="1024.000000pt" height="1024.000000pt" viewBox="0 0 1024.000000 1024.000000"
 preserveAspectRatio="xMidYMid meet">
<metadata>
Created by potrace 1.11, written by Peter Selinger 2001-2013
</metadata>
<g transform="translate(0.000000,1024.000000) scale(0.100000,-0.100000)"
fill="#000000" stroke="none">
<path d="M0 5120 l0 -5120 5120 0 5120 0 0 5120 0 5120 -5120 0 -5120 0 0
-5120z m5522 4564 c190 -75 320 -278 385 -600 27 -135 24 -446 -5 -618 -37
-214 -87 -399 -159 -586 l-45 -115 17 -175 c42 -448 116 -826 184 -937 29 -46
57 -61 136 -73 92 -13 388 -13 595 1 262 17 249 18 418 -39 371 -125 630 -268
808 -446 73 -74 99 -108 134 -178 52 -106 61 -162 30 -200 -19 -25 -28 -28
-79 -28 -94 0 -258 64 -456 179 -58 34 -97 50 -110 47 -11 -3 -54 -14 -95 -26
-153 -42 -410 -43 -730 -4 -119 15 -156 16 -222 6 -101 -15 -164 -46 -203
-101 -26 -37 -30 -53 -34 -122 -3 -77 -2 -82 32 -137 136 -222 283 -598 371
-947 71 -283 111 -513 151 -870 80 -714 192 -1212 344 -1530 l48 -100 350
-360 c346 -355 703 -701 898 -869 139 -121 226 -178 278 -185 28 -4 42 -11 42
-21 0 -12 -23 -15 -138 -18 -75 -1 -177 1 -226 6 -85 9 -95 13 -332 130 -273
135 -428 219 -602 330 -236 149 -362 252 -471 386 -85 104 -133 152 -142 143
-4 -3 -2 -26 5 -49 6 -24 24 -162 41 -308 16 -146 44 -345 62 -444 l33 -178
-41 -77 c-38 -70 -49 -81 -131 -138 l-89 -61 -266 -32 -266 -31 -115 47 -115
47 -7 55 c-5 37 -3 57 5 62 6 4 100 10 208 13 l196 7 118 46 117 46 -12 32
c-8 17 -40 100 -73 185 l-59 154 -128 136 c-70 74 -165 170 -211 211 l-84 76
-139 27 c-76 14 -174 32 -218 38 -103 15 -120 25 -238 127 -97 84 -100 88
-152 199 l-54 113 -57 0 c-31 0 -97 -9 -146 -21 l-90 -21 -44 -61 c-80 -108
-78 -107 -297 -107 -156 0 -209 -4 -296 -22 -100 -20 -109 -24 -165 -72 -71
-60 -78 -62 -366 -71 -233 -8 -390 3 -469 35 -29 11 -75 20 -104 20 -67 0
-138 26 -188 68 -28 24 -55 36 -99 44 l-60 12 0 62 0 62 75 11 c42 6 114 11
161 11 81 0 91 -3 232 -61 l147 -61 130 6 c117 6 144 11 266 50 86 28 156 57
190 80 l53 36 98 257 c104 275 148 450 148 590 0 69 -143 593 -455 1673 -160
553 -158 546 -216 1045 -43 371 -46 484 -20 612 61 293 234 654 522 1084 45
68 95 140 110 160 23 29 268 492 538 1016 l53 101 -11 74 c-23 151 -86 233
-375 494 l-171 153 -141 65 c-95 43 -178 90 -251 142 -59 42 -112 80 -116 84
-4 4 31 32 78 63 101 68 142 76 362 77 166 0 260 -16 370 -62 74 -31 85 -33
198 -33 145 1 245 25 455 113 74 30 151 59 170 63 52 12 172 2 222 -17z"/>
</g>
</svg>
